<?xml version="1.0" encoding="utf-8"?>
<!-- Generator: Adobe Illustrator 18.1.1, SVG Export Plug-In . SVG Version: 6.00 Build 0)  -->
<svg version="1.1" xmlns="http://www.w3.org/2000/svg" xmlns:xlink="http://www.w3.org/1999/xlink" x="0px" y="0px"
	 viewBox="0 0 1329.5 772.3" enable-background="new 0 0 1329.5 772.3" xml:space="preserve">
<g id="Layer_1">
	<rect x="18" y="18" fill="none" stroke="#3EB5F1" stroke-width="36" stroke-miterlimit="10" width="1293.5" height="736.3"/>
	<g>
		<g>
			<path fill="#3EB5F1" d="M597.3,166.7c2.5,74.6-1.1,149.3,1.5,224c0.5,13.3,14.5,21.7,26.3,15.1c70.4-39.1,138.1-82.8,207.4-123.9
				c20-11.9,40.1-23.5,60.4-34.7c8-4.4,11.3-16.1,6.3-23.9c-5.2-8.1-15.4-11-23.9-6.3C804.7,256,737,299.7,667.8,340.8
				c-20,11.9-40.1,23.5-60.4,34.7c8.8,5,17.6,10.1,26.3,15.1c-2.5-74.6,1.1-149.3-1.5-224c-0.3-9.1-7.8-17.9-17.5-17.5
				C605.5,149.6,596.9,156.9,597.3,166.7L597.3,166.7z"/>
		</g>
	</g>
	<g>
		<g>
			<path fill="#3EB5F1" d="M632.3,336.8c68.1-39.9,135.5-80.8,203.2-121.2c19-11.3,38.1-22.6,57.2-33.8c7.9-4.6,11.4-16,6.3-23.9
				c-5.1-8-15.5-11.2-23.9-6.3c-68.1,39.9-135.5,80.8-203.2,121.2c-19,11.3-38.1,22.6-57.2,33.8c-7.9,4.6-11.4,16-6.3,23.9
				C613.5,338.4,623.8,341.7,632.3,336.8L632.3,336.8z"/>
		</g>
	</g>
	<g>
		<g>
			<path fill="#3EB5F1" d="M866.3,166.7c0.5,71.9-0.3,143.8,0.1,215.6c0.1,9.2,8,17.9,17.5,17.5c9.4-0.4,17.6-7.7,17.5-17.5
				c-0.5-71.9,0.3-143.8-0.1-215.6c-0.1-9.2-8-17.9-17.5-17.5C874.4,149.6,866.3,156.8,866.3,166.7L866.3,166.7z"/>
		</g>
	</g>
	<g>
		<g>
			<path fill="#3EB5F1" d="M112,159.2c0,116.8,0,233.5,0,350.3c0,32.9,0,65.9,0,98.8c0,9.2,8,17.9,17.5,17.5
				c9.5-0.4,17.5-7.7,17.5-17.5c0-116.8,0-233.5,0-350.3c0-32.9,0-65.9,0-98.8c0-9.2-8-17.9-17.5-17.5
				C120,142.1,112,149.4,112,159.2L112,159.2z"/>
		</g>
	</g>
	<g>
		<g>
			<path fill="#3EB5F1" d="M117.1,171.6c54.7,45.6,111.6,88.5,167.2,132.9c15.9,12.7,31.7,25.5,47.3,38.5c7,5.8,18,7.4,24.7,0
				c5.9-6.5,7.5-18.5,0-24.7c-54.7-45.6-111.6-88.5-167.2-132.9c-15.9-12.7-31.7-25.5-47.3-38.5c-7-5.8-18-7.4-24.7,0
				C111.2,153.3,109.6,165.3,117.1,171.6L117.1,171.6z"/>
		</g>
	</g>
	<g>
		<g>
			<path fill="#3EB5F1" d="M493.9,166.7c-0.8,115-5.8,229.9-8.4,344.9c-0.7,32.3-1.3,64.5-1.5,96.8c-0.1,9.2,8.1,17.9,17.5,17.5
				c9.5-0.4,17.4-7.7,17.5-17.5c0.8-115,5.8-229.9,8.4-344.9c0.7-32.3,1.3-64.5,1.5-96.8c0.1-9.2-8.1-17.9-17.5-17.5
				C501.9,149.6,494,156.8,493.9,166.7L493.9,166.7z"/>
		</g>
	</g>
	<g>
		<g>
			<path fill="#3EB5F1" d="M190.9,300.6c40,36.2,83.9,68.1,122.4,106c9.4,9.3,18.5,18.9,26.9,29c3.6,4.3,5.6,6.9,9.6,13.1
				c1.6,2.4,3,4.9,4.4,7.4c0.8,1.5,1.6,3,2.4,4.6c0.2,0.5,2.1,4.8,1,2.1c2.2,5.5,3.9,11.2,4.7,17.1c-0.5-4,0,1.2,0,1.7
				c0.1,1.6,0.1,3.2,0.1,4.8c0,1.1-0.1,2.1-0.1,3.2c-0.1,1-0.2,2.1-0.3,3.1c0.3-2.1,0.2-2.1-0.1,0c-0.8,2.8-1.5,5.5-2.4,8.2
				c-0.9,2.6,2-3.2-0.4,0.8c-0.8,1.3-1.6,2.7-2.4,4.1c-2.3,4.2,2.3-2.1-0.7,1c-0.6,0.6-1.2,1.3-1.9,2c-1,1-2,1.9-3,2.7
				c3.4-2.8-1.3,0.7-2.1,1.1c-0.8,0.5-1.6,0.8-2.4,1.3c-3.8,2.1,3.3-0.8-0.8,0.3c-1.3,0.4-2.6,0.8-3.9,1.1c-0.4,0.1-0.9,0.2-1.3,0.3
				c-2,0.3-1.8,0.3,0.7,0c-1,0.5-5.8,0.6-6.6,0c0.7,0.1,1.4,0.2,2,0.3c-0.9-0.1-1.7-0.3-2.6-0.5c-0.9-0.2-4.6-1.8-0.8,0
				c-1.2-0.6-2.3-1.3-3.5-1.9c-3.6-1.8,2.1,2.4-0.7-0.5c-0.6-0.6-1.6-1.9-2.3-2.3c-1.8-0.9,1.8,3.1-0.1-0.1
				c-0.7-1.1-1.4-2.2-2.1-3.4c-0.5-0.9-1.7-4.7-0.4-0.7c-0.8-2.6-1.5-5.2-2.1-7.9c-1-4.4,0,3.7,0-0.8c0-1.2-0.1-2.3-0.1-3.5
				c0-1.2,0-2.3,0.1-3.5c0.1-1,1-5.2,0-0.8c0.5-2.5,1-4.9,1.8-7.3c0.5-1.6,1.1-3.2,1.7-4.8c-1.2,2.9,1.5-3,1.8-3.5
				c2.9-5.6,6.3-10.8,10-15.9c0.7-0.9,1.4-1.9,2-2.8c0,0,3.5-4.5,1.4-1.9c2-2.6,4.1-5.2,6.1-7.8c31.6-40.3,58.6-84,85.4-127.6
				c15.3-24.8,30.4-49.7,46.2-74.2c7.5-11.6,15.1-23,23-34.3c4-5.7,8-11.3,12.1-16.9c1.9-2.5,3.7-5,5.6-7.5c0.2-0.3,3.4-4.4,1-1.4
				c1.2-1.6,2.5-3.2,3.8-4.8c5.7-7.2,7.5-17.8,0-24.7c-6.3-5.8-18.7-7.7-24.7,0c-34.2,43.3-63,90.4-91.8,137.4
				c-14.6,23.8-29.2,47.7-44.5,71.1c-7.2,11-14.5,22-22.1,32.7c-3.7,5.2-7.4,10.4-11.2,15.5c-1.9,2.5-3.7,5-5.6,7.5
				c-3.1,4.1,2.1-2.7-1,1.3c-1.3,1.7-2.6,3.3-3.9,4.9c-18.9,23.9-36.3,49.6-31.1,81.6c2,12.5,8.4,24.9,18.4,32.9
				c12.2,9.8,26.9,12.8,42.2,10.1c30.2-5.3,48.3-34,48.8-63.2c0.5-31.3-17.2-57.9-36.9-80.6c-42.6-49.1-96.8-86.4-144.8-129.8
				c-6.8-6.1-18.1-7.2-24.7,0C184.8,282.6,183.7,294.1,190.9,300.6L190.9,300.6z"/>
		</g>
	</g>
	<g>
		<g>
			<path fill="#3EB5F1" d="M596.1,437.9c-1.2,53.7-2.5,107.5-3.7,161.2c-0.2,9.2,8.2,17.9,17.5,17.5c9.7-0.4,17.3-7.7,17.5-17.5
				c1.2-53.7,2.5-107.5,3.7-161.2c0.2-9.2-8.2-17.9-17.5-17.5C604,420.8,596.4,428.1,596.1,437.9L596.1,437.9z"/>
		</g>
	</g>
	<g>
		<g>
			<path fill="#3EB5F1" d="M611.8,618.7c68.2-0.9,136.4-1.9,204.6-2.8c19.6-0.3,39.3-0.5,58.9-0.8c9.1-0.1,17.9-8,17.5-17.5
				c-0.4-9.4-7.7-17.6-17.5-17.5c-68.2,0.9-136.4,1.9-204.6,2.8c-19.6,0.3-39.3,0.5-58.9,0.8c-9.1,0.1-17.9,8-17.5,17.5
				C594.7,610.6,602,618.9,611.8,618.7L611.8,618.7z"/>
		</g>
	</g>
	<g>
		<g>
			<path fill="#3EB5F1" d="M867.1,434.8c0,54.2,0,108.5,0,162.7c0,9.2,8,17.9,17.5,17.5c9.5-0.4,17.5-7.7,17.5-17.5
				c0-54.2,0-108.5,0-162.7c0-9.2-8-17.9-17.5-17.5C875.1,417.7,867.1,425,867.1,434.8L867.1,434.8z"/>
		</g>
	</g>
	<g>
		<g>
			<path fill="#3EB5F1" d="M769.2,431.7c0.3,55.8,0.6,111.6,0.9,167.4c0.1,9.2,8,17.9,17.5,17.5c9.4-0.4,17.6-7.7,17.5-17.5
				c-0.3-55.8-0.6-111.6-0.9-167.4c-0.1-9.2-8-17.9-17.5-17.5C777.2,414.6,769.1,421.9,769.2,431.7L769.2,431.7z"/>
		</g>
	</g>
	<g>
		<g>
			<path fill="#3EB5F1" d="M1019.8,509.2c45,0,90,0,135.1,0c9.2,0,17.9-8,17.5-17.5c-0.4-9.5-7.7-17.5-17.5-17.5c-45,0-90,0-135.1,0
				c-9.2,0-17.9,8-17.5,17.5C1002.7,501.1,1010,509.2,1019.8,509.2L1019.8,509.2z"/>
		</g>
	</g>
	<g>
		<g>
			<path fill="#3EB5F1" d="M1019.8,575.8c45,0,90,0,135.1,0c9.2,0,17.9-8,17.5-17.5c-0.4-9.5-7.7-17.5-17.5-17.5c-45,0-90,0-135.1,0
				c-9.2,0-17.9,8-17.5,17.5C1002.7,567.8,1010,575.8,1019.8,575.8L1019.8,575.8z"/>
		</g>
	</g>
	<g>
		<g>
			<path fill="#3EB5F1" d="M1079.4,415c-2.2,0.1-4.3,0.1-6.4,0c-1.3-0.1-7.4-1.1-3.1-0.2c-4.2-0.9-8.2-1.8-12.2-3.2
				c-3.1-1-0.3-0.1,0.3,0.2c-1.1-0.5-2.1-1-3.1-1.5c-1.9-1-3.6-2.2-5.4-3.2c-0.6-0.4-2.6-2,0.1,0.2c-0.7-0.6-1.5-1.2-2.2-1.8
				c-1.8-1.6-3.5-3.4-5.1-5.2c-2.2-2.4-0.5-0.5,0,0c-0.7-1-1.5-2.1-2.1-3.2c-1.3-2.1-2.5-4.3-3.7-6.5c-1.5-3.1-2.8-6.1-4.4-11.6
				c-1.4-4.7-2.4-9.4-3.3-14.2c-0.2-1.4-0.5-2.8-0.7-4.2c-0.1-0.5-0.4-3.4-0.1-0.5c-0.3-2.9-0.7-5.7-0.9-8.6
				c-2-21.3-3.5-43-2.4-64.4c0.1-2.4,0.3-4.8,0.5-7.2c0.1-1.2,0.2-2.4,0.3-3.6c0,0.4,0.7-5.4,0.3-3c-0.3,1.9,0.3-1.7,0.3-2.1
				c0.2-1.5,0.5-2.9,0.8-4.4c0.6-2.9,1.3-5.8,2-8.7c0.6-2.3,1.3-4.6,2.1-6.8c0.4-1.1,0.8-2.2,1.2-3.4c1.8-5.4-0.8,1.4,0.4-1.2
				c2-4.3,4.2-8.4,6.8-12.4c0.6-0.9,3.8-5.2,1.7-2.5c1.2-1.6,2.5-3.1,3.9-4.6c1.5-1.7,3.1-3.2,4.7-4.8c0.9-0.8,1.8-1.7,2.8-2.5
				c0.3-0.3,3.5-2.8,1.7-1.4c-2.1,1.5,1.8-1.3,1.8-1.2c0.8-0.5,1.6-1.1,2.5-1.6c1.6-1,3.3-2,5.1-2.9c0,0,4.3-2.1,1.8-1
				c-2,1,0.7-0.3,1.2-0.5c2.2-0.8,4.5-1.5,6.8-2.1c1.2-0.3,2.3-0.5,3.5-0.7c-0.6,0.1-3.8,0.3-0.4,0.1c1.9-0.1,3.8-0.3,5.7-0.2
				c1,0,1.9,0.1,2.9,0.1c4.5,0.1-2.3-0.6,0.4,0c2.4,0.6,4.7,1,7.1,1.7c0.9,0.3,1.8,0.7,2.7,1c2.6,0.8-3.5-2,0.4,0.2
				c1.7,0.9,3.4,1.8,5,2.8c0.8,0.5,1.6,1.1,2.4,1.6c3.9,2.3-1.6-1.5,0.5,0.3c1.9,1.6,3.7,3.1,5.4,4.9c1.6,1.6,3,3.2,4.5,4.9
				c0.5,0.5,2,2.6,0-0.1c0.6,0.8,1.2,1.6,1.7,2.4c2.5,3.7,4.8,7.5,6.7,11.5c0,0,2,4.4,1,1.9c-1.1-2.4,0.8,2,0.8,2
				c0.8,2.2,1.5,4.4,2.2,6.6c1.6,5.3,2.6,10.6,3.6,16c1,5.7-0.2-1.7,0.3,1.7c0.1,1.2,0.3,2.4,0.4,3.6c0.3,2.7,0.5,5.5,0.7,8.2
				c0.3,5.5,0.5,11,0.5,16.5c0.1,10.9,0,21.9-0.4,32.8c-0.2,6-0.5,12-1,18c-0.1,1.2-0.2,2.4-0.3,3.6c0,0.4-0.7,5.5-0.3,2.5
				c-0.4,3-0.9,5.9-1.5,8.8c-1.2,5.8-2.8,11.6-4.8,17.2c0.1-0.3-2.1,5.1-1.1,2.7c0.8-1.8-0.8,1.7-1,2.1c-1.1,2.2-2.3,4.4-3.6,6.4
				c-1.3,2.1-2.7,4.1-4.2,6.1c2.1-2.8,0.1-0.2-0.5,0.5c-1,1.1-1.9,2.2-3,3.3c-1.7,1.8-3.5,3.5-5.3,5.1c-0.4,0.3-2.8,2.3-1.1,0.9
				c1.7-1.3-1.9,1.3-2.4,1.6c-2,1.3-4.1,2.5-6.2,3.6c-0.5,0.2-3.2,1.5-1.2,0.6c2.1-1-2.1,0.7-2.6,0.9c-2.3,0.7-4.6,1.2-6.9,1.7
				c-2.5,0.6,3-0.1,0.4-0.1C1082.7,414.8,1081,415,1079.4,415c-9.2,0-17.9,8.1-17.5,17.5c0.4,9.5,7.7,17.5,17.5,17.5
				c23.2,0.1,44.9-12,59.4-29.7c16.3-20.1,23-44,25.7-69.4c1.3-12.6,1.5-25.2,1.6-37.9c0.1-12.2,0.3-24.5-0.7-36.7
				c-1.9-24.2-7.4-48.8-22.3-68.6c-14.5-19.3-35-33-59.7-34.1c-22.8-1-45,10.4-60.7,26.2c-36.7,36.9-34.9,91.3-31.7,139.5
				c1.8,26.7,4.7,56.1,20.8,78.5c15.7,21.8,40.8,32.8,67.5,32.1c9.1-0.2,17.9-7.9,17.5-17.5C1096.4,423.2,1089.2,414.7,1079.4,415
				L1079.4,415z"/>
		</g>
	</g>
</g>
<g id="Layer_2">
</g>
</svg>
